<?xml version="1.0" standalone="no"?>
<!DOCTYPE svg PUBLIC "-//W3C//DTD SVG 20010904//EN"
 "http://www.w3.org/TR/2001/REC-SVG-20010904/DTD/svg10.dtd">
<svg version="1.0" xmlns="http://www.w3.org/2000/svg"
 width="1024.000000pt" height="1024.000000pt" viewBox="0 0 1024.000000 1024.000000"
 preserveAspectRatio="xMidYMid meet">

<g transform="translate(0.000000,1024.000000) scale(0.100000,-0.100000)"
fill="#000000" stroke="none">
<path d="M4443 8420 c-89 -18 -176 -88 -224 -180 -24 -44 -24 -49 -27 -402
l-3 -357 138 -155 138 -154 5 470 c5 450 6 470 24 484 17 12 187 14 1128 14
l1108 0 0 -583 0 -584 31 -61 c30 -62 82 -113 144 -145 66 -33 144 -37 699
-37 514 1 550 0 560 -17 6 -11 11 -688 14 -1873 l4 -1855 -22 -27 -21 -28
-868 0 -868 0 -34 -23 c-40 -27 -79 -91 -79 -130 0 -43 37 -99 82 -123 23 -12
161 -14 875 -14 868 0 936 3 1020 40 61 27 128 94 163 163 l30 60 0 1995 c0
1811 -1 1997 -16 2030 -22 49 -1419 1443 -1477 1475 l-42 22 -1220 2 c-671 0
-1239 -3 -1262 -7z m2646 -535 c14 -11 217 -213 451 -448 l425 -428 -468 3
c-403 3 -469 5 -477 18 -6 9 -10 202 -10 475 l1 460 26 -30 c14 -16 38 -39 52
-50z"/>
<path d="M2885 7880 c-389 -61 -733 -290 -927 -615 -90 -150 -135 -267 -167
-432 -25 -122 -23 -406 2 -518 53 -234 150 -420 323 -621 206 -239 386 -446
547 -629 l175 -200 -25 -40 c-37 -61 -80 -157 -105 -237 -18 -62 -22 -97 -23
-223 0 -82 3 -170 7 -195 18 -122 99 -317 184 -446 53 -81 92 -127 219 -264
33 -36 74 -81 90 -100 17 -19 165 -183 330 -364 165 -181 330 -363 366 -405
123 -140 237 -231 394 -314 415 -218 924 -207 1301 28 340 212 542 515 610
913 26 148 15 379 -24 532 -51 200 -122 343 -248 501 -87 110 -134 160 -642
703 -73 78 -112 127 -114 145 -2 15 11 54 30 92 46 93 81 241 88 374 14 229
-52 459 -179 631 -37 51 -214 260 -328 389 -75 85 -236 270 -462 530 -303 349
-398 449 -495 522 -140 105 -338 193 -516 229 -90 18 -332 26 -411 14z m400
-360 c154 -41 305 -127 420 -237 54 -52 304 -336 597 -679 56 -67 148 -172
204 -235 182 -205 320 -376 352 -436 17 -33 43 -101 58 -152 23 -82 26 -104
21 -204 -4 -107 -15 -164 -37 -197 -11 -17 -5 -23 -288 277 -164 174 -240 233
-358 280 -66 26 -77 27 -239 27 -165 0 -173 -1 -252 -30 -112 -42 -185 -87
-264 -166 -87 -87 -141 -191 -147 -283 -5 -72 22 -170 64 -237 14 -22 117
-138 230 -258 238 -253 258 -267 357 -239 50 13 113 71 128 116 24 74 19 81
-218 326 -206 212 -224 244 -178 317 74 117 279 165 420 100 55 -26 165 -132
406 -390 79 -85 189 -202 244 -260 55 -58 177 -188 270 -290 94 -101 221 -238
284 -305 354 -373 435 -496 487 -740 16 -74 21 -257 9 -340 -43 -316 -261
-608 -556 -744 -127 -59 -216 -76 -399 -75 -151 0 -173 2 -254 27 -120 37
-220 85 -312 148 -81 57 -215 194 -550 564 -109 121 -274 302 -366 402 -92
101 -195 219 -228 264 -102 138 -162 281 -176 423 -5 49 0 83 25 178 17 65 31
121 31 124 0 3 39 -33 88 -81 182 -180 372 -292 562 -330 82 -17 326 -17 416
0 92 17 235 69 314 113 87 49 227 151 264 192 107 119 99 278 -17 331 -81 36
-156 14 -221 -65 -78 -95 -264 -207 -385 -231 -173 -35 -303 -19 -461 58 -100
48 -112 58 -240 186 -74 75 -184 192 -245 261 -60 68 -150 170 -200 225 -49
56 -128 145 -175 200 -47 54 -123 141 -170 194 -147 166 -255 294 -302 356
-100 133 -156 267 -184 440 -15 93 -16 122 -6 214 16 138 36 217 83 318 133
290 388 494 696 558 96 20 293 13 398 -15z"/>
<path d="M5713 6200 c-28 -11 -59 -60 -68 -106 -8 -45 9 -106 41 -144 l26 -30
954 0 c1037 0 996 -2 1022 55 7 14 12 54 12 89 0 49 -5 69 -21 90 -46 59 6 56
-1011 55 -530 0 -943 -4 -955 -9z"/>
<path d="M5699 5482 c-51 -36 -67 -137 -33 -207 36 -74 -25 -70 994 -73 1010
-3 986 -4 1027 57 43 64 18 182 -45 215 -40 21 -1914 28 -1943 8z"/>
<path d="M6818 4780 l-698 -5 -32 -33 c-30 -29 -33 -38 -33 -90 0 -78 25 -126
76 -146 35 -14 126 -16 750 -16 684 0 711 1 748 20 46 23 71 70 71 135 0 97
-48 147 -137 143 -26 -2 -362 -5 -745 -8z"/>
<path d="M6590 4057 c-14 -7 -33 -28 -43 -47 -24 -47 -20 -149 8 -181 43 -48
54 -49 550 -49 516 0 545 3 576 54 23 38 26 134 4 176 -32 62 -11 60 -565 60
-384 0 -511 -3 -530 -13z"/>
</g>
</svg>
